<svg width="9" height="16" viewBox="0 0 9 16" fill="none" xmlns="http://www.w3.org/2000/svg">
<path d="M7.17188 0.96875L0.615234 7.5957L0.580078 7.63086C0.462891 7.74805 0.404297 7.88867 0.404297 8.05273C0.404297 8.2168 0.462891 8.35742 0.580078 8.47461L7.20703 15.0488C7.32422 15.1543 7.46484 15.207 7.62891 15.207C7.79297 15.207 7.93359 15.1484 8.05078 15.0312C8.16797 14.9141 8.22656 14.7734 8.22656 14.6094C8.22656 14.4453 8.16797 14.3047 8.05078 14.1875L1.8457 8.03516L8.0332 1.8125C8.15039 1.69531 8.20898 1.55176 8.20898 1.38184C8.20898 1.21191 8.14746 1.06836 8.02441 0.951172C7.90137 0.833984 7.75781 0.77832 7.59375 0.78418C7.42969 0.790039 7.28906 0.851562 7.17188 0.96875Z" fill="black"/>
</svg>
