<svg width="18" height="21" viewBox="0 0 18 21" fill="none" xmlns="http://www.w3.org/2000/svg">
<path d="M14.25 6.75H18V17.375C18 19.1328 16.5938 20.5 14.875 20.5H3.625C1.86719 20.5 0.5 19.1328 0.5 17.375V6.75H4.25V5.5C4.25 2.76562 6.47656 0.5 9.25 0.5C11.9844 0.5 14.25 2.76562 14.25 5.5V6.75ZM6.75 5.5V6.75H11.75V5.5C11.75 4.13281 10.6172 3 9.25 3C7.84375 3 6.75 4.13281 6.75 5.5ZM13 10.1875C13.5078 10.1875 13.9375 9.79688 13.9375 9.25C13.9375 8.74219 13.5078 8.3125 13 8.3125C12.4531 8.3125 12.0625 8.74219 12.0625 9.25C12.0625 9.79688 12.4531 10.1875 13 10.1875ZM5.5 10.1875C6.00781 10.1875 6.4375 9.79688 6.4375 9.25C6.4375 8.74219 6.00781 8.3125 5.5 8.3125C4.95312 8.3125 4.5625 8.74219 4.5625 9.25C4.5625 9.79688 4.95312 10.1875 5.5 10.1875Z" fill="black"/>
</svg>
