<svg width="9" height="16" viewBox="0 0 9 16" fill="none" xmlns="http://www.w3.org/2000/svg">
<path d="M1.82812 0.96875L8.38477 7.5957L8.41992 7.63086C8.53711 7.74805 8.5957 7.88867 8.5957 8.05273C8.5957 8.2168 8.53711 8.35742 8.41992 8.47461L1.79297 15.0488C1.67578 15.1543 1.53516 15.207 1.37109 15.207C1.20703 15.207 1.06641 15.1484 0.949219 15.0312C0.832031 14.9141 0.773438 14.7734 0.773438 14.6094C0.773438 14.4453 0.832031 14.3047 0.949219 14.1875L7.1543 8.03516L0.966797 1.8125C0.849609 1.69531 0.791016 1.55176 0.791016 1.38184C0.791016 1.21191 0.852539 1.06836 0.975586 0.951172C1.09863 0.833984 1.24219 0.77832 1.40625 0.78418C1.57031 0.790039 1.71094 0.851562 1.82812 0.96875Z" fill="black"/>
</svg>
