<svg width="18" height="18" viewBox="0 0 18 18" fill="none" xmlns="http://www.w3.org/2000/svg">
<path d="M6.32812 1.96875L12.8848 8.5957L12.9199 8.63086C13.0371 8.74805 13.0957 8.88867 13.0957 9.05273C13.0957 9.2168 13.0371 9.35742 12.9199 9.47461L6.29297 16.0488C6.17578 16.1543 6.03516 16.207 5.87109 16.207C5.70703 16.207 5.56641 16.1484 5.44922 16.0312C5.33203 15.9141 5.27344 15.7734 5.27344 15.6094C5.27344 15.4453 5.33203 15.3047 5.44922 15.1875L11.6543 9.03516L5.4668 2.8125C5.34961 2.69531 5.29102 2.55176 5.29102 2.38184C5.29102 2.21191 5.35254 2.06836 5.47559 1.95117C5.59863 1.83398 5.74219 1.77832 5.90625 1.78418C6.07031 1.79004 6.21094 1.85156 6.32812 1.96875Z" fill="white"/>
</svg>
